<?xml version="1.0" standalone="no"?>
<!DOCTYPE svg PUBLIC "-//W3C//DTD SVG 20010904//EN"
 "http://www.w3.org/TR/2001/REC-SVG-20010904/DTD/svg10.dtd">
<svg version="1.0" xmlns="http://www.w3.org/2000/svg"
 width="300.000000pt" height="300.000000pt" viewBox="0 0 300.000000 300.000000"
 preserveAspectRatio="xMidYMid meet">
<metadata>
Created by potrace 1.11, written by Peter Selinger 2001-2013
</metadata>
<g transform="translate(0.000000,300.000000) scale(0.100000,-0.100000)"
fill="#000000" stroke="none">
<path d="M1468 2855 c-2 -1 -39 -5 -83 -9 -87 -6 -157 -18 -226 -36 -24 -7
-46 -12 -49 -12 -17 -2 -147 -56 -214 -89 -467 -236 -758 -718 -749 -1239 2
-114 14 -207 39 -300 8 -30 17 -63 19 -73 7 -32 45 -128 73 -186 138 -289 385
-530 674 -660 68 -30 212 -77 267 -86 19 -3 37 -7 40 -9 12 -7 158 -19 236
-20 83 0 212 9 255 19 14 4 39 8 55 11 49 8 204 63 284 100 163 75 380 248
482 384 18 25 36 47 39 50 17 14 97 154 130 224 119 256 156 567 100 836 -15
71 -49 187 -65 225 -51 116 -67 149 -110 220 -27 44 -51 82 -54 85 -3 3 -19
23 -36 45 -46 63 -173 186 -255 247 -194 145 -421 236 -660 264 -52 6 -188 12
-192 9z"/>
</g>
</svg>
